<svg width="512" height="512" xmlns="http://www.w3.org/2000/svg" preserveAspectRatio="xMidYMid meet" version="1.0">
 <g>
  <title>Layer 1</title>
  <g id="svg_12" stroke="null">
   <text fill="#d1d1d1" stroke-width="0" x="66.43323" y="-244.097" id="svg_3" font-size="24" font-family="Noto Sans TC" text-anchor="start" xml:space="preserve" transform="matrix(2.3783 0 0 2.3783 -149.014 635.509)" stroke="null">冬  东  南  西  北  中</text>
   <text fill="#d1d1d1" stroke-width="0" x="66.43323" y="-206.12539" id="svg_4" font-size="24" font-family="Noto Sans TC" text-anchor="start" xml:space="preserve" transform="matrix(2.3783 0 0 2.3783 -149.014 635.509)" stroke="null">夏  謂  王  师  定  原</text>
   <text fill="#d1d1d1" stroke-width="0" x="66.43323" y="-169.12539" id="svg_5" font-size="24" font-family="Noto Sans TC" text-anchor="start" xml:space="preserve" transform="matrix(2.3783 0 0 2.3783 -149.014 635.509)" stroke="null">秋  耳  口  手  足  不</text>
   <text fill="#d1d1d1" stroke-width="0" x="66.43323" y="-134.12539" id="svg_6" font-size="24" font-family="Noto Sans TC" text-anchor="start" xml:space="preserve" transform="matrix(2.3783 0 0 2.3783 -149.014 635.509)" stroke="null">春  光  复  香  港  民</text>
   <text fill="#d1d1d1" stroke-width="0" x="66.43323" y="-96.097" id="svg_7" font-size="24" font-family="Noto Sans TC" text-anchor="start" xml:space="preserve" transform="matrix(2.3783 0 0 2.3783 -149.014 635.509)" stroke="null">得  時  代  革  命  主</text>
   <text fill="#d1d1d1" stroke-width="0" x="66.43323" y="-59.12539" id="svg_8" font-size="24" font-family="Noto Sans TC" text-anchor="start" xml:space="preserve" transform="matrix(2.3783 0 0 2.3783 -149.014 635.509)" stroke="null">失  中  土  為  何  慘</text>
  </g>
  <text fill="#000000" stroke-width="0" x="126.89598" y="193.87736" id="svg_1" font-size="24" font-family="Noto Sans TC" text-anchor="start" xml:space="preserve" transform="matrix(5.75661 0 0 5.34773 -350.879 -563.93)" stroke="null">汉</text>
  <text fill="#000000" stroke-width="0" x="103.38192" y="229.78998" id="svg_2" font-size="24" font-family="Noto Sans TC" text-anchor="start" xml:space="preserve" transform="matrix(15.6494 0 0 15.6494 -1602.46 -3247.45)" stroke="null" font-weight="normal" font-style="normal">漢</text>
 </g>

</svg>