<svg width="455" height="530" xmlns="http://www.w3.org/2000/svg" version="1.0">
 <g>
  <title>Layer 1</title>
  <rect id="svg_1" height="14.7931" width="14.7931" y="16" x="15.00002" stroke="null"/>
  <rect id="svg_2" height="14.7931" width="14.7931" y="16" x="29.79312" stroke="null"/>
  <rect id="svg_3" height="14.7931" width="14.7931" y="16" x="44.58622" stroke="null"/>
  <rect id="svg_4" height="14.7931" width="14.7931" y="16" x="59.37932" stroke="null"/>
  <rect id="svg_5" height="14.7931" width="14.7931" y="16" x="74.17243" stroke="null"/>
  <rect id="svg_6" height="14.7931" width="14.7931" y="16" x="88.96553" stroke="null"/>
  <rect id="svg_7" height="14.7931" width="14.7931" y="16" x="103.75863" stroke="null"/>
  <rect id="svg_8" height="14.7931" width="14.7931" y="16" x="162.93104" stroke="null"/>
  <rect id="svg_9" height="14.7931" width="14.7931" y="16" x="177.72415" stroke="null"/>
  <rect id="svg_10" height="14.7931" width="14.7931" y="16" x="192.51725" stroke="null"/>
  <rect id="svg_11" height="14.7931" width="14.7931" y="16" x="251.68966" stroke="null"/>
  <rect id="svg_12" height="14.7931" width="14.7931" y="16" x="266.48277" stroke="null"/>
  <rect id="svg_13" height="14.7931" width="14.7931" y="16" x="281.27587" stroke="null"/>
  <rect id="svg_14" height="14.7931" width="14.7931" y="16" x="296.06897" stroke="null"/>
  <rect id="svg_15" height="14.7931" width="14.7931" y="16" x="340.44828" stroke="null"/>
  <rect id="svg_16" height="14.7931" width="14.7931" y="16" x="355.24138" stroke="null"/>
  <rect id="svg_17" height="14.7931" width="14.7931" y="16" x="370.03449" stroke="null"/>
  <rect id="svg_18" height="14.7931" width="14.7931" y="16" x="384.82759" stroke="null"/>
  <rect id="svg_19" height="14.7931" width="14.7931" y="16" x="399.62069" stroke="null"/>
  <rect id="svg_20" height="14.7931" width="14.7931" y="16" x="414.4138" stroke="null"/>
  <rect id="svg_21" height="14.7931" width="14.7931" y="16" x="429.2069" stroke="null"/>
  <rect id="svg_22" height="14.7931" width="14.7931" y="30.7931" x="15.00002" stroke="null"/>
  <rect id="svg_23" height="14.7931" width="14.7931" y="30.7931" x="103.75863" stroke="null"/>
  <rect id="svg_24" height="14.7931" width="14.7931" y="30.7931" x="236.89656" stroke="null"/>
  <rect id="svg_25" height="14.7931" width="14.7931" y="30.7931" x="251.68966" stroke="null"/>
  <rect id="svg_26" height="14.7931" width="14.7931" y="30.7931" x="266.48277" stroke="null"/>
  <rect id="svg_27" height="14.7931" width="14.7931" y="30.7931" x="310.86207" stroke="null"/>
  <rect id="svg_28" height="14.7931" width="14.7931" y="30.7931" x="340.44828" stroke="null"/>
  <rect id="svg_29" height="14.7931" width="14.7931" y="30.7931" x="429.2069" stroke="null"/>
  <rect id="svg_30" height="14.7931" width="14.7931" y="45.58621" x="15.00002" stroke="null"/>
  <rect id="svg_31" height="14.7931" width="14.7931" y="45.58621" x="44.58622" stroke="null"/>
  <rect id="svg_32" height="14.7931" width="14.7931" y="45.58621" x="59.37932" stroke="null"/>
  <rect id="svg_33" height="14.7931" width="14.7931" y="45.58621" x="74.17243" stroke="null"/>
  <rect id="svg_34" height="14.7931" width="14.7931" y="45.58621" x="103.75863" stroke="null"/>
  <rect id="svg_35" height="14.7931" width="14.7931" y="45.58621" x="133.34484" stroke="null"/>
  <rect id="svg_36" height="14.7931" width="14.7931" y="45.58621" x="148.13794" stroke="null"/>
  <rect id="svg_37" height="14.7931" width="14.7931" y="45.58621" x="162.93104" stroke="null"/>
  <rect id="svg_38" height="14.7931" width="14.7931" y="45.58621" x="177.72415" stroke="null"/>
  <rect id="svg_39" height="14.7931" width="14.7931" y="45.58621" x="192.51725" stroke="null"/>
  <rect id="svg_40" height="14.7931" width="14.7931" y="45.58621" x="222.10346" stroke="null"/>
  <rect id="svg_41" height="14.7931" width="14.7931" y="45.58621" x="236.89656" stroke="null"/>
  <rect id="svg_42" height="14.7931" width="14.7931" y="45.58621" x="310.86207" stroke="null"/>
  <rect id="svg_43" height="14.7931" width="14.7931" y="45.58621" x="340.44828" stroke="null"/>
  <rect id="svg_44" height="14.7931" width="14.7931" y="45.58621" x="370.03449" stroke="null"/>
  <rect id="svg_45" height="14.7931" width="14.7931" y="45.58621" x="384.82759" stroke="null"/>
  <rect id="svg_46" height="14.7931" width="14.7931" y="45.58621" x="399.62069" stroke="null"/>
  <rect id="svg_47" height="14.7931" width="14.7931" y="45.58621" x="429.2069" stroke="null"/>
  <rect id="svg_48" height="14.7931" width="14.7931" y="60.37931" x="15.00002" stroke="null"/>
  <rect id="svg_49" height="14.7931" width="14.7931" y="60.37931" x="44.58622" stroke="null"/>
  <rect id="svg_50" height="14.7931" width="14.7931" y="60.37931" x="59.37932" stroke="null"/>
  <rect id="svg_51" height="14.7931" width="14.7931" y="60.37931" x="74.17243" stroke="null"/>
  <rect id="svg_52" height="14.7931" width="14.7931" y="60.37931" x="103.75863" stroke="null"/>
  <rect id="svg_53" height="14.7931" width="14.7931" y="60.37931" x="133.34484" stroke="null"/>
  <rect id="svg_54" height="14.7931" width="14.7931" y="60.37931" x="207.31035" stroke="null"/>
  <rect id="svg_55" height="14.7931" width="14.7931" y="60.37931" x="266.48277" stroke="null"/>
  <rect id="svg_56" height="14.7931" width="14.7931" y="60.37931" x="296.06897" stroke="null"/>
  <rect id="svg_57" height="14.7931" width="14.7931" y="60.37931" x="340.44828" stroke="null"/>
  <rect id="svg_58" height="14.7931" width="14.7931" y="60.37931" x="370.03449" stroke="null"/>
  <rect id="svg_59" height="14.7931" width="14.7931" y="60.37931" x="384.82759" stroke="null"/>
  <rect id="svg_60" height="14.7931" width="14.7931" y="60.37931" x="399.62069" stroke="null"/>
  <rect id="svg_61" height="14.7931" width="14.7931" y="60.37931" x="429.2069" stroke="null"/>
  <rect id="svg_62" height="14.7931" width="14.7931" y="75.17241" x="15.00002" stroke="null"/>
  <rect id="svg_63" height="14.7931" width="14.7931" y="75.17241" x="44.58622" stroke="null"/>
  <rect id="svg_64" height="14.7931" width="14.7931" y="75.17241" x="59.37932" stroke="null"/>
  <rect id="svg_65" height="14.7931" width="14.7931" y="75.17241" x="74.17243" stroke="null"/>
  <rect id="svg_66" height="14.7931" width="14.7931" y="75.17241" x="103.75863" stroke="null"/>
  <rect id="svg_67" height="14.7931" width="14.7931" y="75.17241" x="133.34484" stroke="null"/>
  <rect id="svg_68" height="14.7931" width="14.7931" y="75.17241" x="162.93104" stroke="null"/>
  <rect id="svg_69" height="14.7931" width="14.7931" y="75.17241" x="207.31035" stroke="null"/>
  <rect id="svg_70" height="14.7931" width="14.7931" y="75.17241" x="251.68966" stroke="null"/>
  <rect id="svg_71" height="14.7931" width="14.7931" y="75.17241" x="296.06897" stroke="null"/>
  <rect id="svg_72" height="14.7931" width="14.7931" y="75.17241" x="310.86207" stroke="null"/>
  <rect id="svg_73" height="14.7931" width="14.7931" y="75.17241" x="340.44828" stroke="null"/>
  <rect id="svg_74" height="14.7931" width="14.7931" y="75.17241" x="370.03449" stroke="null"/>
  <rect id="svg_75" height="14.7931" width="14.7931" y="75.17241" x="384.82759" stroke="null"/>
  <rect id="svg_76" height="14.7931" width="14.7931" y="75.17241" x="399.62069" stroke="null"/>
  <rect id="svg_77" height="14.7931" width="14.7931" y="75.17241" x="429.2069" stroke="null"/>
  <rect id="svg_78" height="14.7931" width="14.7931" y="89.96552" x="15.00002" stroke="null"/>
  <rect id="svg_79" height="14.7931" width="14.7931" y="89.96552" x="103.75863" stroke="null"/>
  <rect id="svg_80" height="14.7931" width="14.7931" y="89.96552" x="133.34484" stroke="null"/>
  <rect id="svg_81" height="14.7931" width="14.7931" y="89.96552" x="148.13794" stroke="null"/>
  <rect id="svg_82" height="14.7931" width="14.7931" y="89.96552" x="207.31035" stroke="null"/>
  <rect id="svg_83" height="14.7931" width="14.7931" y="89.96552" x="222.10346" stroke="null"/>
  <rect id="svg_84" height="14.7931" width="14.7931" y="89.96552" x="236.89656" stroke="null"/>
  <rect id="svg_85" height="14.7931" width="14.7931" y="89.96552" x="251.68966" stroke="null"/>
  <rect id="svg_86" height="14.7931" width="14.7931" y="89.96552" x="281.27587" stroke="null"/>
  <rect id="svg_87" height="14.7931" width="14.7931" y="89.96552" x="310.86207" stroke="null"/>
  <rect id="svg_88" height="14.7931" width="14.7931" y="89.96552" x="340.44828" stroke="null"/>
  <rect id="svg_89" height="14.7931" width="14.7931" y="89.96552" x="429.2069" stroke="null"/>
  <rect id="svg_90" height="14.7931" width="14.7931" y="104.75862" x="15.00002" stroke="null"/>
  <rect id="svg_91" height="14.7931" width="14.7931" y="104.75862" x="29.79312" stroke="null"/>
  <rect id="svg_92" height="14.7931" width="14.7931" y="104.75862" x="44.58622" stroke="null"/>
  <rect id="svg_93" height="14.7931" width="14.7931" y="104.75862" x="59.37932" stroke="null"/>
  <rect id="svg_94" height="14.7931" width="14.7931" y="104.75862" x="74.17243" stroke="null"/>
  <rect id="svg_95" height="14.7931" width="14.7931" y="104.75862" x="88.96553" stroke="null"/>
  <rect id="svg_96" height="14.7931" width="14.7931" y="104.75862" x="103.75863" stroke="null"/>
  <rect id="svg_97" height="14.7931" width="14.7931" y="104.75862" x="133.34484" stroke="null"/>
  <rect id="svg_98" height="14.7931" width="14.7931" y="104.75862" x="162.93104" stroke="null"/>
  <rect id="svg_99" height="14.7931" width="14.7931" y="104.75862" x="192.51725" stroke="null"/>
  <rect id="svg_100" height="14.7931" width="14.7931" y="104.75862" x="222.10346" stroke="null"/>
  <rect id="svg_101" height="14.7931" width="14.7931" y="104.75862" x="251.68966" stroke="null"/>
  <rect id="svg_102" height="14.7931" width="14.7931" y="104.75862" x="281.27587" stroke="null"/>
  <rect id="svg_103" height="14.7931" width="14.7931" y="104.75862" x="310.86207" stroke="null"/>
  <rect id="svg_104" height="14.7931" width="14.7931" y="104.75862" x="340.44828" stroke="null"/>
  <rect id="svg_105" height="14.7931" width="14.7931" y="104.75862" x="355.24138" stroke="null"/>
  <rect id="svg_106" height="14.7931" width="14.7931" y="104.75862" x="370.03449" stroke="null"/>
  <rect id="svg_107" height="14.7931" width="14.7931" y="104.75862" x="384.82759" stroke="null"/>
  <rect id="svg_108" height="14.7931" width="14.7931" y="104.75862" x="399.62069" stroke="null"/>
  <rect id="svg_109" height="14.7931" width="14.7931" y="104.75862" x="414.4138" stroke="null"/>
  <rect id="svg_110" height="14.7931" width="14.7931" y="104.75862" x="429.2069" stroke="null"/>
  <rect id="svg_111" height="14.7931" width="14.7931" y="119.55172" x="133.34484" stroke="null"/>
  <rect id="svg_112" height="14.7931" width="14.7931" y="119.55172" x="148.13794" stroke="null"/>
  <rect id="svg_113" height="14.7931" width="14.7931" y="119.55172" x="162.93104" stroke="null"/>
  <rect id="svg_114" height="14.7931" width="14.7931" y="119.55172" x="177.72415" stroke="null"/>
  <rect id="svg_115" height="14.7931" width="14.7931" y="119.55172" x="192.51725" stroke="null"/>
  <rect id="svg_116" height="14.7931" width="14.7931" y="119.55172" x="222.10346" stroke="null"/>
  <rect id="svg_117" height="14.7931" width="14.7931" y="119.55172" x="251.68966" stroke="null"/>
  <rect id="svg_118" height="14.7931" width="14.7931" y="119.55172" x="281.27587" stroke="null"/>
  <rect id="svg_119" height="14.7931" width="14.7931" y="119.55172" x="296.06897" stroke="null"/>
  <rect id="svg_120" height="14.7931" width="14.7931" y="119.55172" x="310.86207" stroke="null"/>
  <rect id="svg_121" height="14.7931" width="14.7931" y="134.34483" x="15.00002" stroke="null"/>
  <rect id="svg_122" height="14.7931" width="14.7931" y="134.34483" x="44.58622" stroke="null"/>
  <rect id="svg_123" height="14.7931" width="14.7931" y="134.34483" x="59.37932" stroke="null"/>
  <rect id="svg_124" height="14.7931" width="14.7931" y="134.34483" x="74.17243" stroke="null"/>
  <rect id="svg_125" height="14.7931" width="14.7931" y="134.34483" x="88.96553" stroke="null"/>
  <rect id="svg_126" height="14.7931" width="14.7931" y="134.34483" x="103.75863" stroke="null"/>
  <rect id="svg_127" height="14.7931" width="14.7931" y="134.34483" x="162.93104" stroke="null"/>
  <rect id="svg_128" height="14.7931" width="14.7931" y="134.34483" x="192.51725" stroke="null"/>
  <rect id="svg_129" height="14.7931" width="14.7931" y="134.34483" x="207.31035" stroke="null"/>
  <rect id="svg_130" height="14.7931" width="14.7931" y="134.34483" x="266.48277" stroke="null"/>
  <rect id="svg_131" height="14.7931" width="14.7931" y="134.34483" x="296.06897" stroke="null"/>
  <rect id="svg_132" height="14.7931" width="14.7931" y="134.34483" x="340.44828" stroke="null"/>
  <rect id="svg_133" height="14.7931" width="14.7931" y="134.34483" x="355.24138" stroke="null"/>
  <rect id="svg_134" height="14.7931" width="14.7931" y="134.34483" x="370.03449" stroke="null"/>
  <rect id="svg_135" height="14.7931" width="14.7931" y="134.34483" x="384.82759" stroke="null"/>
  <rect id="svg_136" height="14.7931" width="14.7931" y="134.34483" x="399.62069" stroke="null"/>
  <rect id="svg_137" height="14.7931" width="14.7931" y="149.13793" x="29.79312" stroke="null"/>
  <rect id="svg_138" height="14.7931" width="14.7931" y="149.13793" x="59.37932" stroke="null"/>
  <rect id="svg_139" height="14.7931" width="14.7931" y="149.13793" x="88.96553" stroke="null"/>
  <rect id="svg_140" height="14.7931" width="14.7931" y="149.13793" x="118.55174" stroke="null"/>
  <rect id="svg_141" height="14.7931" width="14.7931" y="149.13793" x="148.13794" stroke="null"/>
  <rect id="svg_142" height="14.7931" width="14.7931" y="149.13793" x="177.72415" stroke="null"/>
  <rect id="svg_143" height="14.7931" width="14.7931" y="149.13793" x="222.10346" stroke="null"/>
  <rect id="svg_144" height="14.7931" width="14.7931" y="149.13793" x="251.68966" stroke="null"/>
  <rect id="svg_145" height="14.7931" width="14.7931" y="149.13793" x="281.27587" stroke="null"/>
  <rect id="svg_146" height="14.7931" width="14.7931" y="149.13793" x="296.06897" stroke="null"/>
  <rect id="svg_147" height="14.7931" width="14.7931" y="149.13793" x="310.86207" stroke="null"/>
  <rect id="svg_148" height="14.7931" width="14.7931" y="149.13793" x="340.44828" stroke="null"/>
  <rect id="svg_149" height="14.7931" width="14.7931" y="149.13793" x="355.24138" stroke="null"/>
  <rect id="svg_150" height="14.7931" width="14.7931" y="149.13793" x="370.03449" stroke="null"/>
  <rect id="svg_151" height="14.7931" width="14.7931" y="149.13793" x="429.2069" stroke="null"/>
  <rect id="svg_152" height="14.7931" width="14.7931" y="163.93103" x="44.58622" stroke="null"/>
  <rect id="svg_153" height="14.7931" width="14.7931" y="163.93103" x="74.17243" stroke="null"/>
  <rect id="svg_154" height="14.7931" width="14.7931" y="163.93103" x="103.75863" stroke="null"/>
  <rect id="svg_155" height="14.7931" width="14.7931" y="163.93103" x="148.13794" stroke="null"/>
  <rect id="svg_156" height="14.7931" width="14.7931" y="163.93103" x="162.93104" stroke="null"/>
  <rect id="svg_157" height="14.7931" width="14.7931" y="163.93103" x="192.51725" stroke="null"/>
  <rect id="svg_158" height="14.7931" width="14.7931" y="163.93103" x="207.31035" stroke="null"/>
  <rect id="svg_159" height="14.7931" width="14.7931" y="163.93103" x="236.89656" stroke="null"/>
  <rect id="svg_160" height="14.7931" width="14.7931" y="163.93103" x="251.68966" stroke="null"/>
  <rect id="svg_161" height="14.7931" width="14.7931" y="163.93103" x="281.27587" stroke="null"/>
  <rect id="svg_162" height="14.7931" width="14.7931" y="163.93103" x="310.86207" stroke="null"/>
  <rect id="svg_163" height="14.7931" width="14.7931" y="163.93103" x="325.65518" stroke="null"/>
  <rect id="svg_164" height="14.7931" width="14.7931" y="178.72413" x="15.00002" stroke="null"/>
  <rect id="svg_165" height="14.7931" width="14.7931" y="178.72413" x="74.17243" stroke="null"/>
  <rect id="svg_166" height="14.7931" width="14.7931" y="178.72413" x="88.96553" stroke="null"/>
  <rect id="svg_167" height="14.7931" width="14.7931" y="178.72413" x="148.13794" stroke="null"/>
  <rect id="svg_168" height="14.7931" width="14.7931" y="178.72413" x="192.51725" stroke="null"/>
  <rect id="svg_169" height="14.7931" width="14.7931" y="178.72413" x="236.89656" stroke="null"/>
  <rect id="svg_170" height="14.7931" width="14.7931" y="178.72413" x="251.68966" stroke="null"/>
  <rect id="svg_171" height="14.7931" width="14.7931" y="178.72413" x="296.06897" stroke="null"/>
  <rect id="svg_172" height="14.7931" width="14.7931" y="178.72413" x="325.65518" stroke="null"/>
  <rect id="svg_173" height="14.7931" width="14.7931" y="178.72413" x="355.24138" stroke="null"/>
  <rect id="svg_174" height="14.7931" width="14.7931" y="178.72413" x="384.82759" stroke="null"/>
  <rect id="svg_175" height="14.7931" width="14.7931" y="178.72413" x="414.4138" stroke="null"/>
  <rect id="svg_176" height="14.7931" width="14.7931" y="193.51724" x="44.58622" stroke="null"/>
  <rect id="svg_177" height="14.7931" width="14.7931" y="193.51724" x="59.37932" stroke="null"/>
  <rect id="svg_178" height="14.7931" width="14.7931" y="193.51724" x="74.17243" stroke="null"/>
  <rect id="svg_179" height="14.7931" width="14.7931" y="193.51724" x="88.96553" stroke="null"/>
  <rect id="svg_180" height="14.7931" width="14.7931" y="193.51724" x="103.75863" stroke="null"/>
  <rect id="svg_181" height="14.7931" width="14.7931" y="193.51724" x="118.55174" stroke="null"/>
  <rect id="svg_182" height="14.7931" width="14.7931" y="193.51724" x="133.34484" stroke="null"/>
  <rect id="svg_183" height="14.7931" width="14.7931" y="193.51724" x="148.13794" stroke="null"/>
  <rect id="svg_184" height="14.7931" width="14.7931" y="193.51724" x="162.93104" stroke="null"/>
  <rect id="svg_185" height="14.7931" width="14.7931" y="193.51724" x="177.72415" stroke="null"/>
  <rect id="svg_186" height="14.7931" width="14.7931" y="193.51724" x="192.51725" stroke="null"/>
  <rect id="svg_187" height="14.7931" width="14.7931" y="193.51724" x="207.31035" stroke="null"/>
  <rect id="svg_188" height="14.7931" width="14.7931" y="193.51724" x="236.89656" stroke="null"/>
  <rect id="svg_189" height="14.7931" width="14.7931" y="193.51724" x="251.68966" stroke="null"/>
  <rect id="svg_190" height="14.7931" width="14.7931" y="193.51724" x="266.48277" stroke="null"/>
  <rect id="svg_191" height="14.7931" width="14.7931" y="193.51724" x="384.82759" stroke="null"/>
  <rect id="svg_192" height="14.7931" width="14.7931" y="193.51724" x="399.62069" stroke="null"/>
  <rect id="svg_193" height="14.7931" width="14.7931" y="208.31034" x="29.79312" stroke="null"/>
  <rect id="svg_194" height="14.7931" width="14.7931" y="208.31034" x="118.55174" stroke="null"/>
  <rect id="svg_201" height="14.7931" width="14.7931" y="208.31034" x="310.86207" stroke="null"/>
  <rect id="svg_202" height="14.7931" width="14.7931" y="208.31034" x="325.65518" stroke="null"/>
  <rect id="svg_203" height="14.7931" width="14.7931" y="208.31034" x="340.44828" stroke="null"/>
  <rect id="svg_204" height="14.7931" width="14.7931" y="208.31034" x="370.03449" stroke="null"/>
  <rect id="svg_205" height="14.7931" width="14.7931" y="208.31034" x="429.2069" stroke="null"/>
  <rect id="svg_206" height="14.7931" width="14.7931" y="223.10344" x="29.79312" stroke="null"/>
  <rect id="svg_207" height="14.7931" width="14.7931" y="223.10344" x="103.75863" stroke="null"/>
  <rect id="svg_208" height="14.7931" width="14.7931" y="223.10344" x="118.55174" stroke="null"/>
  <rect id="svg_215" height="14.7931" width="14.7931" y="223.10344" x="355.24138" stroke="null"/>
  <rect id="svg_216" height="14.7931" width="14.7931" y="223.10344" x="384.82759" stroke="null"/>
  <rect id="svg_217" height="14.7931" width="14.7931" y="223.10344" x="399.62069" stroke="null"/>
  <rect id="svg_218" height="14.7931" width="14.7931" y="237.89655" x="29.79312" stroke="null"/>
  <rect id="svg_219" height="14.7931" width="14.7931" y="237.89655" x="88.96553" stroke="null"/>
  <rect id="svg_220" height="14.7931" width="14.7931" y="237.89655" x="118.55174" stroke="null"/>
  <rect id="svg_226" height="14.7931" width="14.7931" y="237.89655" x="355.24138" stroke="null"/>
  <rect id="svg_227" height="14.7931" width="14.7931" y="237.89655" x="370.03449" stroke="null"/>
  <rect id="svg_228" height="14.7931" width="14.7931" y="237.89655" x="414.4138" stroke="null"/>
  <rect id="svg_229" height="14.7931" width="14.7931" y="252.68965" x="15.00002" stroke="null"/>
  <rect id="svg_230" height="14.7931" width="14.7931" y="252.68965" x="44.58622" stroke="null"/>
  <rect id="svg_231" height="14.7931" width="14.7931" y="252.68965" x="59.37932" stroke="null"/>
  <rect id="svg_232" height="14.7931" width="14.7931" y="252.68965" x="74.17243" stroke="null"/>
  <rect id="svg_233" height="14.7931" width="14.7931" y="252.68965" x="103.75863" stroke="null"/>
  <rect id="svg_234" height="14.7931" width="14.7931" y="252.68965" x="118.55174" stroke="null"/>
  <rect id="svg_239" height="14.7931" width="14.7931" y="252.68965" x="355.24138" stroke="null"/>
  <rect id="svg_240" height="14.7931" width="14.7931" y="252.68965" x="384.82759" stroke="null"/>
  <rect id="svg_241" height="14.7931" width="14.7931" y="252.68965" x="399.62069" stroke="null"/>
  <rect id="svg_242" height="14.7931" width="14.7931" y="267.48275" x="44.58622" stroke="null"/>
  <rect id="svg_243" height="14.7931" width="14.7931" y="267.48275" x="118.55174" stroke="null"/>
  <rect id="svg_244" height="14.7931" width="14.7931" y="267.48275" x="162.93104" stroke="null"/>
  <rect id="svg_245" height="14.7931" width="14.7931" y="267.48275" x="177.72415" stroke="null"/>
  <rect id="svg_246" height="14.7931" width="14.7931" y="267.48275" x="207.31035" stroke="null"/>
  <rect id="svg_247" height="14.7931" width="14.7931" y="267.48275" x="251.68966" stroke="null"/>
  <rect id="svg_248" height="14.7931" width="14.7931" y="267.48275" x="296.06897" stroke="null"/>
  <rect id="svg_249" height="14.7931" width="14.7931" y="267.48275" x="340.44828" stroke="null"/>
  <rect id="svg_250" height="14.7931" width="14.7931" y="267.48275" x="355.24138" stroke="null"/>
  <rect id="svg_251" height="14.7931" width="14.7931" y="267.48275" x="370.03449" stroke="null"/>
  <rect id="svg_252" height="14.7931" width="14.7931" y="267.48275" x="399.62069" stroke="null"/>
  <rect id="svg_253" height="14.7931" width="14.7931" y="267.48275" x="429.2069" stroke="null"/>
  <rect id="svg_254" height="14.7931" width="14.7931" y="282.27586" x="29.79312" stroke="null"/>
  <rect id="svg_255" height="14.7931" width="14.7931" y="282.27586" x="44.58622" stroke="null"/>
  <rect id="svg_256" height="14.7931" width="14.7931" y="282.27586" x="88.96553" stroke="null"/>
  <rect id="svg_257" height="14.7931" width="14.7931" y="282.27586" x="103.75863" stroke="null"/>
  <rect id="svg_258" height="14.7931" width="14.7931" y="282.27586" x="118.55174" stroke="null"/>
  <rect id="svg_259" height="14.7931" width="14.7931" y="282.27586" x="162.93104" stroke="null"/>
  <rect id="svg_260" height="14.7931" width="14.7931" y="282.27586" x="207.31035" stroke="null"/>
  <rect id="svg_261" height="14.7931" width="14.7931" y="282.27586" x="222.10346" stroke="null"/>
  <rect id="svg_262" height="14.7931" width="14.7931" y="282.27586" x="236.89656" stroke="null"/>
  <rect id="svg_263" height="14.7931" width="14.7931" y="282.27586" x="251.68966" stroke="null"/>
  <rect id="svg_264" height="14.7931" width="14.7931" y="282.27586" x="281.27587" stroke="null"/>
  <rect id="svg_265" height="14.7931" width="14.7931" y="282.27586" x="325.65518" stroke="null"/>
  <rect id="svg_266" height="14.7931" width="14.7931" y="282.27586" x="340.44828" stroke="null"/>
  <rect id="svg_267" height="14.7931" width="14.7931" y="282.27586" x="355.24138" stroke="null"/>
  <rect id="svg_268" height="14.7931" width="14.7931" y="282.27586" x="399.62069" stroke="null"/>
  <rect id="svg_269" height="14.7931" width="14.7931" y="297.06896" x="29.79312" stroke="null"/>
  <rect id="svg_270" height="14.7931" width="14.7931" y="297.06896" x="44.58622" stroke="null"/>
  <rect id="svg_271" height="14.7931" width="14.7931" y="297.06896" x="118.55174" stroke="null"/>
  <rect id="svg_272" height="14.7931" width="14.7931" y="297.06896" x="162.93104" stroke="null"/>
  <rect id="svg_273" height="14.7931" width="14.7931" y="297.06896" x="207.31035" stroke="null"/>
  <rect id="svg_274" height="14.7931" width="14.7931" y="297.06896" x="251.68966" stroke="null"/>
  <rect id="svg_275" height="14.7931" width="14.7931" y="297.06896" x="281.27587" stroke="null"/>
  <rect id="svg_276" height="14.7931" width="14.7931" y="297.06896" x="310.86207" stroke="null"/>
  <rect id="svg_277" height="14.7931" width="14.7931" y="297.06896" x="355.24138" stroke="null"/>
  <rect id="svg_278" height="14.7931" width="14.7931" y="297.06896" x="370.03449" stroke="null"/>
  <rect id="svg_279" height="14.7931" width="14.7931" y="297.06896" x="414.4138" stroke="null"/>
  <rect id="svg_280" height="14.7931" width="14.7931" y="311.86206" x="29.79312" stroke="null"/>
  <rect id="svg_281" height="14.7931" width="14.7931" y="311.86206" x="44.58622" stroke="null"/>
  <rect id="svg_282" height="14.7931" width="14.7931" y="311.86206" x="88.96553" stroke="null"/>
  <rect id="svg_283" height="14.7931" width="14.7931" y="311.86206" x="103.75863" stroke="null"/>
  <rect id="svg_284" height="14.7931" width="14.7931" y="311.86206" x="118.55174" stroke="null"/>
  <rect id="svg_285" height="14.7931" width="14.7931" y="311.86206" x="148.13794" stroke="null"/>
  <rect id="svg_286" height="14.7931" width="14.7931" y="311.86206" x="162.93104" stroke="null"/>
  <rect id="svg_287" height="14.7931" width="14.7931" y="311.86206" x="222.10346" stroke="null"/>
  <rect id="svg_288" height="14.7931" width="14.7931" y="311.86206" x="266.48277" stroke="null"/>
  <rect id="svg_289" height="14.7931" width="14.7931" y="311.86206" x="296.06897" stroke="null"/>
  <rect id="svg_290" height="14.7931" width="14.7931" y="311.86206" x="310.86207" stroke="null"/>
  <rect id="svg_291" height="14.7931" width="14.7931" y="311.86206" x="325.65518" stroke="null"/>
  <rect id="svg_292" height="14.7931" width="14.7931" y="311.86206" x="340.44828" stroke="null"/>
  <rect id="svg_293" height="14.7931" width="14.7931" y="311.86206" x="355.24138" stroke="null"/>
  <rect id="svg_294" height="14.7931" width="14.7931" y="311.86206" x="370.03449" stroke="null"/>
  <rect id="svg_295" height="14.7931" width="14.7931" y="311.86206" x="399.62069" stroke="null"/>
  <rect id="svg_296" height="14.7931" width="14.7931" y="311.86206" x="414.4138" stroke="null"/>
  <rect id="svg_297" height="14.7931" width="14.7931" y="311.86206" x="429.2069" stroke="null"/>
  <rect id="svg_298" height="14.7931" width="14.7931" y="326.65516" x="133.34484" stroke="null"/>
  <rect id="svg_299" height="14.7931" width="14.7931" y="326.65516" x="162.93104" stroke="null"/>
  <rect id="svg_300" height="14.7931" width="14.7931" y="326.65516" x="281.27587" stroke="null"/>
  <rect id="svg_301" height="14.7931" width="14.7931" y="326.65516" x="310.86207" stroke="null"/>
  <rect id="svg_302" height="14.7931" width="14.7931" y="326.65516" x="370.03449" stroke="null"/>
  <rect id="svg_303" height="14.7931" width="14.7931" y="326.65516" x="384.82759" stroke="null"/>
  <rect id="svg_304" height="14.7931" width="14.7931" y="326.65516" x="399.62069" stroke="null"/>
  <rect id="svg_305" height="14.7931" width="14.7931" y="326.65516" x="414.4138" stroke="null"/>
  <rect id="svg_306" height="14.7931" width="14.7931" y="326.65516" x="429.2069" stroke="null"/>
  <rect id="svg_307" height="14.7931" width="14.7931" y="341.44827" x="15.00002" stroke="null"/>
  <rect id="svg_308" height="14.7931" width="14.7931" y="341.44827" x="29.79312" stroke="null"/>
  <rect id="svg_309" height="14.7931" width="14.7931" y="341.44827" x="44.58622" stroke="null"/>
  <rect id="svg_310" height="14.7931" width="14.7931" y="341.44827" x="59.37932" stroke="null"/>
  <rect id="svg_311" height="14.7931" width="14.7931" y="341.44827" x="74.17243" stroke="null"/>
  <rect id="svg_312" height="14.7931" width="14.7931" y="341.44827" x="88.96553" stroke="null"/>
  <rect id="svg_313" height="14.7931" width="14.7931" y="341.44827" x="103.75863" stroke="null"/>
  <rect id="svg_314" height="14.7931" width="14.7931" y="341.44827" x="148.13794" stroke="null"/>
  <rect id="svg_315" height="14.7931" width="14.7931" y="341.44827" x="192.51725" stroke="null"/>
  <rect id="svg_316" height="14.7931" width="14.7931" y="341.44827" x="236.89656" stroke="null"/>
  <rect id="svg_317" height="14.7931" width="14.7931" y="341.44827" x="251.68966" stroke="null"/>
  <rect id="svg_318" height="14.7931" width="14.7931" y="341.44827" x="281.27587" stroke="null"/>
  <rect id="svg_319" height="14.7931" width="14.7931" y="341.44827" x="296.06897" stroke="null"/>
  <rect id="svg_320" height="14.7931" width="14.7931" y="341.44827" x="310.86207" stroke="null"/>
  <rect id="svg_321" height="14.7931" width="14.7931" y="341.44827" x="340.44828" stroke="null"/>
  <rect id="svg_322" height="14.7931" width="14.7931" y="341.44827" x="370.03449" stroke="null"/>
  <rect id="svg_323" height="14.7931" width="14.7931" y="341.44827" x="384.82759" stroke="null"/>
  <rect id="svg_324" height="14.7931" width="14.7931" y="341.44827" x="399.62069" stroke="null"/>
  <rect id="svg_325" height="14.7931" width="14.7931" y="356.24137" x="15.00002" stroke="null"/>
  <rect id="svg_326" height="14.7931" width="14.7931" y="356.24137" x="103.75863" stroke="null"/>
  <rect id="svg_327" height="14.7931" width="14.7931" y="356.24137" x="133.34484" stroke="null"/>
  <rect id="svg_328" height="14.7931" width="14.7931" y="356.24137" x="148.13794" stroke="null"/>
  <rect id="svg_329" height="14.7931" width="14.7931" y="356.24137" x="162.93104" stroke="null"/>
  <rect id="svg_330" height="14.7931" width="14.7931" y="356.24137" x="192.51725" stroke="null"/>
  <rect id="svg_331" height="14.7931" width="14.7931" y="356.24137" x="222.10346" stroke="null"/>
  <rect id="svg_332" height="14.7931" width="14.7931" y="356.24137" x="236.89656" stroke="null"/>
  <rect id="svg_333" height="14.7931" width="14.7931" y="356.24137" x="251.68966" stroke="null"/>
  <rect id="svg_334" height="14.7931" width="14.7931" y="356.24137" x="296.06897" stroke="null"/>
  <rect id="svg_335" height="14.7931" width="14.7931" y="356.24137" x="310.86207" stroke="null"/>
  <rect id="svg_336" height="14.7931" width="14.7931" y="356.24137" x="370.03449" stroke="null"/>
  <rect id="svg_337" height="14.7931" width="14.7931" y="356.24137" x="414.4138" stroke="null"/>
  <rect id="svg_338" height="14.7931" width="14.7931" y="371.03447" x="15.00002" stroke="null"/>
  <rect id="svg_339" height="14.7931" width="14.7931" y="371.03447" x="44.58622" stroke="null"/>
  <rect id="svg_340" height="14.7931" width="14.7931" y="371.03447" x="59.37932" stroke="null"/>
  <rect id="svg_341" height="14.7931" width="14.7931" y="371.03447" x="74.17243" stroke="null"/>
  <rect id="svg_342" height="14.7931" width="14.7931" y="371.03447" x="103.75863" stroke="null"/>
  <rect id="svg_343" height="14.7931" width="14.7931" y="371.03447" x="133.34484" stroke="null"/>
  <rect id="svg_344" height="14.7931" width="14.7931" y="371.03447" x="148.13794" stroke="null"/>
  <rect id="svg_345" height="14.7931" width="14.7931" y="371.03447" x="177.72415" stroke="null"/>
  <rect id="svg_346" height="14.7931" width="14.7931" y="371.03447" x="192.51725" stroke="null"/>
  <rect id="svg_347" height="14.7931" width="14.7931" y="371.03447" x="236.89656" stroke="null"/>
  <rect id="svg_348" height="14.7931" width="14.7931" y="371.03447" x="266.48277" stroke="null"/>
  <rect id="svg_349" height="14.7931" width="14.7931" y="371.03447" x="310.86207" stroke="null"/>
  <rect id="svg_350" height="14.7931" width="14.7931" y="371.03447" x="325.65518" stroke="null"/>
  <rect id="svg_351" height="14.7931" width="14.7931" y="371.03447" x="340.44828" stroke="null"/>
  <rect id="svg_352" height="14.7931" width="14.7931" y="371.03447" x="355.24138" stroke="null"/>
  <rect id="svg_353" height="14.7931" width="14.7931" y="371.03447" x="370.03449" stroke="null"/>
  <rect id="svg_354" height="14.7931" width="14.7931" y="371.03447" x="399.62069" stroke="null"/>
  <rect id="svg_355" height="14.7931" width="14.7931" y="371.03447" x="414.4138" stroke="null"/>
  <rect id="svg_356" height="14.7931" width="14.7931" y="371.03447" x="429.2069" stroke="null"/>
  <rect id="svg_357" height="14.7931" width="14.7931" y="385.82758" x="15.00002" stroke="null"/>
  <rect id="svg_358" height="14.7931" width="14.7931" y="385.82758" x="44.58622" stroke="null"/>
  <rect id="svg_359" height="14.7931" width="14.7931" y="385.82758" x="59.37932" stroke="null"/>
  <rect id="svg_360" height="14.7931" width="14.7931" y="385.82758" x="74.17243" stroke="null"/>
  <rect id="svg_361" height="14.7931" width="14.7931" y="385.82758" x="103.75863" stroke="null"/>
  <rect id="svg_362" height="14.7931" width="14.7931" y="385.82758" x="133.34484" stroke="null"/>
  <rect id="svg_363" height="14.7931" width="14.7931" y="385.82758" x="148.13794" stroke="null"/>
  <rect id="svg_364" height="14.7931" width="14.7931" y="385.82758" x="177.72415" stroke="null"/>
  <rect id="svg_365" height="14.7931" width="14.7931" y="385.82758" x="207.31035" stroke="null"/>
  <rect id="svg_366" height="14.7931" width="14.7931" y="385.82758" x="222.10346" stroke="null"/>
  <rect id="svg_367" height="14.7931" width="14.7931" y="385.82758" x="251.68966" stroke="null"/>
  <rect id="svg_368" height="14.7931" width="14.7931" y="385.82758" x="266.48277" stroke="null"/>
  <rect id="svg_369" height="14.7931" width="14.7931" y="385.82758" x="281.27587" stroke="null"/>
  <rect id="svg_370" height="14.7931" width="14.7931" y="385.82758" x="296.06897" stroke="null"/>
  <rect id="svg_371" height="14.7931" width="14.7931" y="385.82758" x="355.24138" stroke="null"/>
  <rect id="svg_372" height="14.7931" width="14.7931" y="385.82758" x="384.82759" stroke="null"/>
  <rect id="svg_373" height="14.7931" width="14.7931" y="385.82758" x="399.62069" stroke="null"/>
  <rect id="svg_374" height="14.7931" width="14.7931" y="385.82758" x="414.4138" stroke="null"/>
  <rect id="svg_375" height="14.7931" width="14.7931" y="385.82758" x="429.2069" stroke="null"/>
  <rect id="svg_376" height="14.7931" width="14.7931" y="400.62068" x="15.00002" stroke="null"/>
  <rect id="svg_377" height="14.7931" width="14.7931" y="400.62068" x="44.58622" stroke="null"/>
  <rect id="svg_378" height="14.7931" width="14.7931" y="400.62068" x="59.37932" stroke="null"/>
  <rect id="svg_379" height="14.7931" width="14.7931" y="400.62068" x="74.17243" stroke="null"/>
  <rect id="svg_380" height="14.7931" width="14.7931" y="400.62068" x="103.75863" stroke="null"/>
  <rect id="svg_381" height="14.7931" width="14.7931" y="400.62068" x="133.34484" stroke="null"/>
  <rect id="svg_382" height="14.7931" width="14.7931" y="400.62068" x="148.13794" stroke="null"/>
  <rect id="svg_383" height="14.7931" width="14.7931" y="400.62068" x="207.31035" stroke="null"/>
  <rect id="svg_384" height="14.7931" width="14.7931" y="400.62068" x="236.89656" stroke="null"/>
  <rect id="svg_385" height="14.7931" width="14.7931" y="400.62068" x="251.68966" stroke="null"/>
  <rect id="svg_386" height="14.7931" width="14.7931" y="400.62068" x="340.44828" stroke="null"/>
  <rect id="svg_387" height="14.7931" width="14.7931" y="400.62068" x="355.24138" stroke="null"/>
  <rect id="svg_388" height="14.7931" width="14.7931" y="400.62068" x="370.03449" stroke="null"/>
  <rect id="svg_389" height="14.7931" width="14.7931" y="400.62068" x="384.82759" stroke="null"/>
  <rect id="svg_390" height="14.7931" width="14.7931" y="400.62068" x="399.62069" stroke="null"/>
  <rect id="svg_391" height="14.7931" width="14.7931" y="400.62068" x="414.4138" stroke="null"/>
  <rect id="svg_392" height="14.7931" width="14.7931" y="415.41378" x="15.00002" stroke="null"/>
  <rect id="svg_393" height="14.7931" width="14.7931" y="415.41378" x="103.75863" stroke="null"/>
  <rect id="svg_394" height="14.7931" width="14.7931" y="415.41378" x="162.93104" stroke="null"/>
  <rect id="svg_395" height="14.7931" width="14.7931" y="415.41378" x="177.72415" stroke="null"/>
  <rect id="svg_396" height="14.7931" width="14.7931" y="415.41378" x="192.51725" stroke="null"/>
  <rect id="svg_397" height="14.7931" width="14.7931" y="415.41378" x="207.31035" stroke="null"/>
  <rect id="svg_398" height="14.7931" width="14.7931" y="415.41378" x="236.89656" stroke="null"/>
  <rect id="svg_399" height="14.7931" width="14.7931" y="415.41378" x="251.68966" stroke="null"/>
  <rect id="svg_400" height="14.7931" width="14.7931" y="415.41378" x="281.27587" stroke="null"/>
  <rect id="svg_401" height="14.7931" width="14.7931" y="415.41378" x="310.86207" stroke="null"/>
  <rect id="svg_402" height="14.7931" width="14.7931" y="415.41378" x="325.65518" stroke="null"/>
  <rect id="svg_403" height="14.7931" width="14.7931" y="415.41378" x="355.24138" stroke="null"/>
  <rect id="svg_404" height="14.7931" width="14.7931" y="415.41378" x="384.82759" stroke="null"/>
  <rect id="svg_405" height="14.7931" width="14.7931" y="415.41378" x="414.4138" stroke="null"/>
  <rect id="svg_406" height="14.7931" width="14.7931" y="430.20688" x="15.00002" stroke="null"/>
  <rect id="svg_407" height="14.7931" width="14.7931" y="430.20688" x="29.79312" stroke="null"/>
  <rect id="svg_408" height="14.7931" width="14.7931" y="430.20688" x="44.58622" stroke="null"/>
  <rect id="svg_409" height="14.7931" width="14.7931" y="430.20688" x="59.37932" stroke="null"/>
  <rect id="svg_410" height="14.7931" width="14.7931" y="430.20688" x="74.17243" stroke="null"/>
  <rect id="svg_411" height="14.7931" width="14.7931" y="430.20688" x="88.96553" stroke="null"/>
  <rect id="svg_412" height="14.7931" width="14.7931" y="430.20688" x="103.75863" stroke="null"/>
  <rect id="svg_413" height="14.7931" width="14.7931" y="430.20688" x="133.34484" stroke="null"/>
  <rect id="svg_414" height="14.7931" width="14.7931" y="430.20688" x="177.72415" stroke="null"/>
  <rect id="svg_415" height="14.7931" width="14.7931" y="430.20688" x="192.51725" stroke="null"/>
  <rect id="svg_416" height="14.7931" width="14.7931" y="430.20688" x="207.31035" stroke="null"/>
  <rect id="svg_417" height="14.7931" width="14.7931" y="430.20688" x="222.10346" stroke="null"/>
  <rect id="svg_418" height="14.7931" width="14.7931" y="430.20688" x="266.48277" stroke="null"/>
  <rect id="svg_419" height="14.7931" width="14.7931" y="430.20688" x="296.06897" stroke="null"/>
  <rect id="svg_420" height="14.7931" width="14.7931" y="430.20688" x="325.65518" stroke="null"/>
  <rect id="svg_421" height="14.7931" width="14.7931" y="430.20688" x="355.24138" stroke="null"/>
  <rect id="svg_422" height="14.7931" width="14.7931" y="430.20688" x="370.03449" stroke="null"/>
  <rect id="svg_423" height="14.7931" width="14.7931" y="430.20688" x="384.82759" stroke="null"/>
  <rect id="svg_424" height="14.7931" width="14.7931" y="430.20688" x="399.62069" stroke="null"/>
  <g id="svg_425">
   <path id="svg_2" d="m2.685,459l178.80798,0l0,70.24402l-178.80798,0l0,-70.24402z" stroke="#3179f6" fill="#3179f6"/>
   <path id="svg_3" d="m184.47301,459l268.21196,0l0,70.24402l-268.21196,0l0,-70.24402z" stroke="#efbf54" fill="#efbf54"/>
   <g id="svg_4" fill="#fff" text-anchor="middle" font-family="Verdana,Geneva,DejaVu Sans,sans-serif" text-rendering="geometricPrecision" font-size="110">
    <text id="svg_5" transform="matrix(0.45035 0 0 0.4246 -3.76 -159.372)" aria-hidden="true" x="230.80699" y="1590.05647" fill="#010101" fill-opacity="0.3" textLength="330">PayPal</text>
    <text id="svg_6" transform="matrix(0.45035 0 0 0.4246 -3.76 -159.372)" x="230.80699" y="1580.05647" textLength="330">PayPal</text>
    <text id="svg_7" transform="matrix(0.45035 0 0 0.4246 -3.76 -159.372)" aria-hidden="true" x="710.80699" y="1590.05647" fill="#010101" fill-opacity="0.3" textLength="470">DONATE</text>
    <text id="svg_8" transform="matrix(0.45035 0 0 0.4246 -3.76 -159.372)" x="710.80699" y="1580.05647" textLength="470">DONATE</text>
   </g>
  </g>
  <g id="svg_80" stroke="null">
   <path id="svg_81" d="m210.20981,224.97397l-11.10001,0c-0.76001,0 -1.40601,0.552 -1.524,1.30203l-4.49001,28.46301a0.924,0.924 0 0 0 0.916,1.06793l5.299,0c0.76003,0 1.405,-0.55194 1.52402,-1.30298l1.20999,-7.67706a1.54,1.54 0 0 1 1.52301,-1.30396l3.51401,0c7.31201,0 11.53198,-3.53796 12.63397,-10.54999c0.496,-3.06699 0.02002,-5.47702 -1.41496,-7.16498c-1.578,-1.85397 -4.37599,-2.83401 -8.091,-2.83401l0,0l-0.00002,0zm1.28,10.396c-0.60699,3.98306 -3.64998,3.98306 -6.59302,3.98306l-1.67499,0l1.175,-7.43903c0.07002,-0.45004 0.46002,-0.78003 0.91399,-0.78003l0.76804,0c2.004,0 3.89499,0 4.87198,1.14203c0.58302,0.68198 0.76202,1.694 0.54002,3.09396l-0.00102,0l0,0zm31.89999,-0.12897l-5.31601,0a0.926,0.926 0 0 0 -0.91399,0.78098l-0.23499,1.487l-0.37204,-0.53998c-1.14998,-1.67001 -3.71599,-2.228 -6.278,-2.228c-5.87299,0 -10.88998,4.44998 -11.86699,10.69003c-0.50801,3.11292 0.21399,6.0899 1.98003,8.16492c1.62,1.90997 3.93701,2.7041 6.69501,2.7041c4.733,0 7.35699,-3.04309 7.35699,-3.04309l-0.237,1.47699a0.925,0.925 0 0 0 0.91199,1.07104l4.78798,0c0.76102,0 1.40402,-0.55194 1.52402,-1.30304l2.873,-18.19299a0.921,0.921 0 0 0 -0.91,-1.06796l0,0zm-7.41,10.34604c-0.513,3.03601 -2.92299,5.07495 -5.99698,5.07495c-1.543,0 -2.77704,-0.495 -3.569,-1.43298c-0.78499,-0.93201 -1.084,-2.25806 -0.834,-3.73511c0.47899,-3.00989 2.92996,-5.11597 5.95598,-5.11597c1.51001,0 2.737,0.50201 3.545,1.448c0.81001,0.95605 1.131,2.2901 0.90002,3.76001l0,0l-0.00102,0.0011zm35.71902,-10.34604l-5.34204,0c-0.50995,0 -0.98798,0.25397 -1.27698,0.677l-7.367,10.85196l-3.12299,-10.42798a1.547,1.547 0 0 0 -1.48001,-1.10001l-5.24899,0a0.926,0.926 0 0 0 -0.87802,1.22299l5.884,17.26599l-5.53198,7.80908a0.925,0.925 0 0 0 0.755,1.45996l5.33499,0c0.50601,0 0.98001,-0.24609 1.26797,-0.66205l17.76501,-25.64392a0.925,0.925 0 0 0 -0.75998,-1.45303l0,0l0.00101,0z" fill="#253B80"/>
   <path id="svg_82" d="m289.38278,224.97397l-11.10095,0c-0.75806,0 -1.40402,0.552 -1.52304,1.30203l-4.48898,28.46301a0.924,0.924 0 0 0 0.91205,1.06793l5.69696,0c0.53,0 0.98199,-0.38593 1.06503,-0.91193l1.27396,-8.06812a1.54,1.54 0 0 1 1.52203,-1.30396l3.513,0c7.31299,0 11.53094,-3.53796 12.63495,-10.54999c0.49799,-3.06699 0.02002,-5.47702 -1.41699,-7.16498c-1.57599,-1.85397 -4.37201,-2.83401 -8.08795,-2.83401l0,0l-0.00006,0zm1.28101,10.396c-0.60498,3.98306 -3.64899,3.98306 -6.59299,3.98306l-1.673,0l1.177,-7.43903c0.07001,-0.45004 0.45602,-0.78003 0.91202,-0.78003l0.76697,0c2.00302,0 3.89603,0 4.87314,1.14203c0.58301,0.68198 0.75995,1.694 0.53699,3.09396l0,0l0,0l-0.00006,0l0,0l-0.00006,0zm31.89801,-0.12897l-5.31198,0a0.92,0.92 0 0 0 -0.91299,0.78098l-0.23499,1.487l-0.37305,-0.53998c-1.151,-1.67001 -3.71497,-2.228 -6.27701,-2.228c-5.87296,0 -10.88898,4.44998 -11.866,10.69003c-0.50595,3.11292 0.21304,6.0899 1.979,8.16492c1.62305,1.90997 3.93701,2.7041 6.69501,2.7041c4.73303,0 7.35699,-3.04309 7.35699,-3.04309l-0.237,1.47699a0.925,0.925 0 0 0 0.91605,1.07104l4.78598,0c0.758,0 1.40399,-0.55194 1.52197,-1.30304l2.875,-18.19299a0.927,0.927 0 0 0 -0.91699,-1.06796l0,0zm-7.40997,10.34604c-0.51001,3.03601 -2.92291,5.07495 -5.99701,5.07495c-1.53998,0 -2.77698,-0.495 -3.56903,-1.43298c-0.78491,-0.93201 -1.07999,-2.25806 -0.83386,-3.73511c0.48187,-3.00989 2.92987,-5.11597 5.95697,-5.11597c1.51001,0 2.7359,0.50201 3.54407,1.448c0.81396,0.95605 1.13498,2.2901 0.8999,3.76001l0,0l-0.00104,0.0011zm13.67596,-19.83203l-4.55597,28.98401a0.924,0.924 0 0 0 0.91296,1.06793l4.58002,0a1.54,1.54 0 0 0 1.52399,-1.30298l4.49301,-28.46201a0.925,0.925 0 0 0 -0.91299,-1.07004l-5.12799,0a0.927,0.927 0 0 0 -0.91287,0.78299l0,0l-0.00003,0.00003l-0.00006,0.00003l0,0.00003l-0.00006,0z" fill="#179BD7"/>
   <path id="svg_83" d="m146.9998,261.33795l0.84898,-5.39093l-1.88998,-0.04407l-9.03,0l6.27498,-39.78598a0.513,0.513 0 0 1 0.51001,-0.435l15.22401,0c5.054,0 8.54196,1.052 10.36298,3.12799c0.85303,0.97302 1.39702,1.99103 1.65999,3.11102c0.27602,1.17499 0.28001,2.57898 0.011,4.29099l-0.01898,0.125l0,1.09702l0.85397,0.48401c0.71898,0.38199 1.28998,0.81796 1.72801,1.31796c0.73,0.83304 1.20299,1.89001 1.40302,3.14603c0.20598,1.28998 0.13799,2.82501 -0.20003,4.564c-0.38998,2 -1.01999,3.73999 -1.87,5.16602a10.627,10.627 0 0 1 -2.96199,3.24603c-1.12999,0.802 -2.472,1.40991 -3.99001,1.79999c-1.47002,0.383 -3.14603,0.57587 -4.985,0.57587l-1.18501,0c-0.84698,0 -1.67,0.30511 -2.31598,0.85205a3.587,3.587 0 0 0 -1.20801,2.15497l-0.08902,0.48602l-1.49997,9.50299l-0.06799,0.34912c-0.01804,0.10999 -0.04901,0.16498 -0.09399,0.20294a0.251,0.251 0 0 1 -0.15601,0.05597l-7.31499,0l0,0l0.00003,0l-0.00003,0z" fill="#253B80"/>
   <path id="svg_84" d="m172.61481,226.46399l0,0c-0.045,0.29001 -0.09702,0.58701 -0.15604,0.89301c-2.008,10.30804 -8.87598,13.86896 -17.64899,13.86896l-4.466,0a2.17,2.17 0 0 0 -2.14497,1.83704l0,0l-2.28603,14.50299l-0.64798,4.11206a1.143,1.143 0 0 0 1.12799,1.32001l7.92203,0c0.938,0 1.735,-0.68103 1.88301,-1.60608l0.078,-0.40295l1.49098,-9.46509l0.09601,-0.5199a1.905,1.905 0 0 1 1.88303,-1.60999l1.18501,0c7.67499,0 13.68401,-3.11609 15.43999,-12.13403c0.73297,-3.76703 0.35397,-6.91202 -1.58803,-9.12402c-0.58701,-0.66699 -1.31599,-1.22 -2.16798,-1.67203l0,0l-0.00003,0l0,0.00003z" fill="#179BD7"/>
   <path id="svg_85" d="m170.5148,225.62601a15.845,15.845 0 0 0 -1.953,-0.43301c-1.20398,-0.19501 -2.52402,-0.28699 -3.93701,-0.28699l-11.93298,0a1.902,1.902 0 0 0 -1.88101,1.60999l-2.53802,16.078l-0.07396,0.46899a2.17,2.17 0 0 1 2.14497,-1.8371l4.466,0c8.77301,0 15.64102,-3.56299 17.65002,-13.86996c0.05998,-0.30496 0.11,-0.60202 0.155,-0.892c-0.50803,-0.26999 -1.05801,-0.5 -1.65001,-0.69601a14.651,14.651 0 0 0 -0.45003,-0.14197l0,0l0.00003,0l0,0.00003l0,0.00003z" fill="#222D65"/>
   <path id="svg_86" d="m150.81079,226.51599a1.897,1.897 0 0 1 1.88101,-1.60901l11.93298,0c1.41299,0 2.733,0.09302 3.93701,0.28799a15.83,15.83 0 0 1 2.40399,0.573c0.59201,0.19601 1.14301,0.42801 1.64999,0.69601c0.59802,-3.81 -0.004,-6.40298 -2.064,-8.75201c-2.26999,-2.58499 -6.36899,-3.69199 -11.61299,-3.69199l-15.22403,0a2.176,2.176 0 0 0 -2.14996,1.83902l-6.34201,40.19495a1.308,1.308 0 0 0 1.28996,1.51202l9.39999,0l2.36002,-14.97198l2.53799,-16.07803l0,0l0.00003,0l0,0.00003z" fill="#253B80"/>
  </g>
 </g>

</svg>