<?xml version="1.0"?>
<svg width="310" height="310" xmlns="http://www.w3.org/2000/svg">
 <!-- Created with Method Draw - http://github.com/duopixel/Method-Draw/ -->

 <g>
  <title>background</title>
  <rect x="-1" y="-1" width="312" height="312" id="canvas_background" fill="#007fff"/>
  <g id="canvasGrid" width="100%" height="100%" x="0" y="0" overflow="visible" display="none">
   <rect id="svg_1" width="100%" height="100%" x="0" y="0" stroke-width="0" fill="url(#gridpattern)"/>
  </g>
 </g>
 <g>
  <title>Layer 1</title>
  <rect fill="#007fff" stroke="#ffffff" stroke-width="11.5" x="5" y="5" width="300" height="300" id="svg_3"/>
  <rect fill="#ffffff" stroke="#ffffff" stroke-width="11.5" x="52" y="49" width="210" height="210" id="svg_4"/>
  <rect fill="#007fff" stroke-width="11.5" x="45" y="73.199999" width="120" height="30" id="svg_12"/>
  <rect fill="#007fff" stroke-width="11.5" x="45" y="102.199999" width="90" height="30" id="svg_13"/>
  <rect fill="#007fff" stroke-width="11.5" x="45" y="131.199999" width="60" height="30" id="svg_14"/>
  <rect fill="#007fff" stroke-width="11.5" x="45" y="160.199999" width="30" height="30" id="svg_15"/>
  <rect fill="#007fff" stroke-width="11.5" x="149" y="203.199999" width="120" height="30" id="svg_18"/>
  <rect fill="#007fff" stroke-width="11.5" x="179" y="174.199999" width="90" height="30" id="svg_19"/>
  <rect fill="#007fff" stroke-width="11.5" x="209" y="145.199999" width="60" height="30" id="svg_20"/>
  <rect fill="#007fff" stroke-width="11.5" x="239" y="116.199999" width="30" height="30" id="svg_21"/>
  <rect fill="#007fff" stroke-width="11.5" x="-3.5" y="138.999994" width="321" height="30" id="svg_23" transform="rotate(-45 157 154)"/>
 </g>
</svg>